<?xml version="1.0" encoding="UTF-8" standalone="no"?>
<!DOCTYPE svg PUBLIC "-//W3C//DTD SVG 1.1//EN" "http://www.w3.org/Graphics/SVG/1.1/DTD/svg11.dtd">
<svg width="100%" height="100%" viewBox="0 0 16 16" version="1.1" xmlns="http://www.w3.org/2000/svg" xmlns:xlink="http://www.w3.org/1999/xlink" xml:space="preserve" xmlns:serif="http://www.serif.com/" style="fill-rule:evenodd;clip-rule:evenodd;stroke-linejoin:round;stroke-miterlimit:2;">
    <rect id="Level-Bounds" serif:id="Level Bounds" x="0" y="0" width="16" height="16" style="fill:none;"/>
    <g>
        <path d="M16,-0L16,16L0,16L0,0L16,0ZM14,2L2,2L2,14L14,14L14,2Z" style="fill:rgb(0,142,255);"/>
        <g>
            <path d="M3.725,3.625L5.1,3.625L5.1,11.125L7.363,11.125L7.363,12.375L3.725,12.375L3.725,3.625Z" style="fill:rgb(0,209,255);fill-rule:nonzero;"/>
            <path d="M8.025,3.625L10.1,3.625C10.808,3.625 11.325,3.79 11.65,4.119C11.975,4.448 12.138,4.954 12.138,5.638L12.138,5.988C12.138,6.438 12.065,6.805 11.919,7.088C11.773,7.371 11.55,7.575 11.25,7.7L11.25,7.725C11.933,7.958 12.275,8.567 12.275,9.55L12.275,10.3C12.275,10.975 12.098,11.49 11.744,11.844C11.39,12.198 10.871,12.375 10.188,12.375L8.025,12.375L8.025,3.625ZM9.938,7.187C10.213,7.187 10.419,7.116 10.557,6.974C10.695,6.832 10.763,6.595 10.763,6.262L10.763,5.774C10.763,5.457 10.707,5.228 10.594,5.087C10.481,4.945 10.304,4.874 10.063,4.874L9.4,4.874L9.4,7.186L9.938,7.186L9.938,7.187ZM10.188,11.125C10.43,11.125 10.609,11.06 10.725,10.931C10.842,10.802 10.9,10.579 10.9,10.262L10.9,9.5C10.9,9.1 10.831,8.823 10.694,8.669C10.556,8.515 10.329,8.438 10.013,8.438L9.4,8.438L9.4,11.126L10.188,11.126L10.188,11.125Z" style="fill:rgb(0,209,255);fill-rule:nonzero;"/>
        </g>
    </g>
</svg>
